<svg width="800" height="800" viewBox="0 0 800 800" fill="none" xmlns="http://www.w3.org/2000/svg">
<path d="M400 783.333V591.667V496" stroke="#5FA5F9" stroke-width="64" stroke-miterlimit="10"/>
<path d="M400 304.333V16.6667" stroke="#5FA5F9" stroke-width="64" stroke-miterlimit="10"/>
<path d="M511.667 96.6667L400 208.333L288.333 96.6667" stroke="#5FA5F9" stroke-width="64" stroke-miterlimit="10"/>
<path d="M400 783.333V591.667V496" stroke="#5FA5F9" stroke-width="64" stroke-miterlimit="10"/>
<path d="M400 304.333V16.6667" stroke="#5FA5F9" stroke-width="64" stroke-miterlimit="10"/>
<path d="M288.333 703.333L400 591.667L511.667 703.333" stroke="#5FA5F9" stroke-width="64" stroke-miterlimit="10"/>
<path d="M732 591.667L566 496L483 448" stroke="#5FA5F9" stroke-width="64" stroke-miterlimit="10"/>
<path d="M317 352L68 208.333" stroke="#5FA5F9" stroke-width="64" stroke-miterlimit="10"/>
<path d="M193 151.333L234 304.333L81.3334 345" stroke="#5FA5F9" stroke-width="64" stroke-miterlimit="10"/>
<path d="M732 591.667L566 496L483 448" stroke="#5FA5F9" stroke-width="64" stroke-miterlimit="10"/>
<path d="M317 352L68 208.333" stroke="#5FA5F9" stroke-width="64" stroke-miterlimit="10"/>
<path d="M607 648.667L566 496L718.667 455" stroke="#5FA5F9" stroke-width="64" stroke-miterlimit="10"/>
<path d="M317 448L68 591.667" stroke="#5FA5F9" stroke-width="64" stroke-miterlimit="10"/>
<path d="M483 352L566 304.333L732 208.333" stroke="#5FA5F9" stroke-width="64" stroke-miterlimit="10"/>
<path d="M607 151.333L566 304.333L718.667 345" stroke="#5FA5F9" stroke-width="64" stroke-miterlimit="10"/>
<path d="M317 448L68 591.667" stroke="#5FA5F9" stroke-width="64" stroke-miterlimit="10"/>
<path d="M483 352L566 304.333L732 208.333" stroke="#5FA5F9" stroke-width="64" stroke-miterlimit="10"/>
<path d="M193 648.667L234 496L81.3334 455" stroke="#5FA5F9" stroke-width="64" stroke-miterlimit="10"/>
<path d="M496 400C496.08 423.377 487.656 445.986 472.3 463.612C456.943 481.238 435.701 492.678 412.533 495.8C389.365 498.922 365.852 493.513 346.378 480.581C326.903 467.649 312.795 448.077 306.684 425.513C300.573 402.948 302.875 378.932 313.162 357.939C323.449 336.947 341.018 320.411 362.595 311.415C384.172 302.419 408.285 301.576 430.437 309.043C452.59 316.51 471.272 331.778 483 352C491.445 366.593 495.927 383.14 496 400Z" stroke="#5FA5F9" stroke-width="64" stroke-miterlimit="10"/>
</svg>
